<svg viewBox="10 230 200 65" xmlns="http://www.w3.org/2000/svg">
	<g>
		<path
		style="fill:#ff6600;stroke:#000000;stroke-width:0.922264"
		d="m 342.9042,1037.9764 c -0.4871,-19.1343 -1.06862,-22.0266 -3.94816,-19.6368 -0.87195,0.7237 -1.59262,3.7675 -2.00132,8.4527 -0.98407,11.2811 -2.2381,9.5937 -2.24686,-3.0235 -0.0125,-17.9579 -1.47191,-30.63263 -4.92665,-42.78646 -3.84538,-13.52813 -5.32946,-22.80788 -5.31402,-33.22783 0.0124,-8.35326 1.16576,-13.03037 4.60422,-18.67083 1.0748,-1.7631 1.95573,-3.88713 1.95763,-4.72007 0.007,-3.20476 3.7599,-13.3463 5.91336,-15.98103 l 2.25786,-2.76244 -0.51417,5.14648 c -0.73901,7.39704 1.25372,11.17692 7.43373,14.10053 2.62331,1.24102 5.91239,2.54322 7.30908,2.89376 3.02071,0.75815 5.91516,5.82405 6.7318,11.78209 1.14266,8.33662 -1.39808,23.21294 -6.70899,39.28182 -5.46739,16.54235 -6.09251,20.13248 -7.69601,44.19908 -2.39704,35.9766 -2.3258,35.603 -2.8515,14.9525 z"
		id="c1"
		transform="scale(0.26458333)" />
		<path
		style="fill:#ff6600;stroke:#000000;stroke-width:0.922264"
		d="m 410.36697,1044.2026 c -3.32297,-47.66376 -3.5364,-49.11288 -9.88448,-67.11286 -4.90675,-13.91307 -6.88996,-23.67496 -6.95499,-34.23435 -0.078,-12.66552 2.1581,-16.10565 11.93754,-18.36522 7.43574,-1.71804 9.49184,-3.95891 10.18721,-11.10263 l 0.57681,-5.92577 1.6608,2.46225 c 0.91345,1.35424 2.01432,4.96323 2.44639,8.01998 0.49852,3.52689 1.61452,6.66484 3.0541,8.58752 5.09656,6.80686 5.66091,8.81158 5.64845,20.06483 -0.0124,11.22299 -1.3289,19.23479 -5.90087,35.91173 -2.43302,8.8748 -2.70746,11.48281 -3.34299,31.76802 -0.47993,15.3189 -0.90348,20.7413 -1.38043,17.6727 -0.67593,-4.3489 -2.10457,-7.0833 -3.70075,-7.0833 -0.44443,0 -0.80806,0.856 -0.80806,1.9022 0,1.0462 -0.51444,2.8072 -1.1432,3.9134 -0.62877,1.1062 -1.38887,5.1191 -1.68912,8.9174 -0.30026,3.7984 -0.61814,5.8702 -0.70641,4.6041 z"
		id="c2"
		transform="scale(0.26458333)" />
		<path
		style="fill:#ff6600;stroke:#000000;stroke-width:0.922264"
		d="m 473.45713,1032.9339 c -0.82096,-24.5129 -1.99875,-33.9612 -5.87365,-47.11873 -6.2562,-21.24341 -6.89056,-24.0702 -7.35461,-32.77313 -0.37927,-7.11306 -0.14441,-9.60356 1.25682,-13.32763 1.80258,-4.79075 2.14039,-5.05735 11.58642,-9.14388 6.09305,-2.63596 7.31668,-4.7111 7.24645,-12.2892 -0.0246,-2.65885 0.12928,-4.83427 0.34205,-4.83427 1.21523,0 5.21013,8.78354 6.47451,14.23543 0.81218,3.50208 2.38198,7.6365 3.48842,9.18759 1.74452,2.44558 2.05313,4.28307 2.32348,13.83412 0.34609,12.22694 -0.31924,16.60067 -5.18819,34.10591 -2.98889,10.74588 -3.33369,13.14817 -3.37021,23.48079 -0.0224,6.3305 0.25439,16.2753 0.61504,22.0995 0.60077,9.702 0.55331,10.2323 -0.56634,6.3286 -1.4721,-5.1325 -2.25755,-6.52 -3.31926,-5.8639 -0.44033,0.2722 -1.24013,-0.239 -1.77733,-1.136 -1.88686,-3.1503 -3.53093,1.0262 -4.18642,10.6352 -0.3344,4.902 -0.71611,9.3269 -0.84825,9.8332 -0.13215,0.5062 -0.51416,-7.2579 -0.84893,-17.2536 z"
		id="c3"
		transform="scale(0.26458333)" />
		<path
		style="fill:#ff2a2a;stroke:#000000;stroke-width:0.326069"
		d="m 352.00429,923.76004 c -1.84183,-0.67629 -5.4121,-2.6293 -7.18743,-3.93168 -1.1283,-0.82771 -1.8094,-1.66662 -2.39937,-2.95529 -0.72844,-1.59113 -0.8071,-2.11832 -0.67931,-4.55304 0.13398,-2.55269 0.26745,-2.98911 1.82964,-5.98265 0.92682,-1.776 1.68512,-3.45196 1.68512,-3.72435 0,-0.5788 0.58212,-0.62915 1.82237,-0.1576 l 0.88808,0.33765 -1.35522,1.30222 c -1.07832,1.03615 -1.35523,1.53257 -1.35523,2.42958 0,1.50613 0.85037,2.28923 3.16136,2.91126 5.19521,1.39838 6.04737,2.57206 6.6233,9.12226 0.20467,2.32773 0.42571,4.28812 0.49119,4.35643 0.0655,0.0683 -0.0274,0.39793 -0.2065,0.7325 -0.38516,0.71968 -1.55658,0.75947 -3.318,0.11271 z"
		id="face1"
		transform="scale(0.26458333)" />
		<path
		style="fill:#ff2a2a;stroke:#000000;stroke-width:0.326069"
		d="m 401.51091,922.13043 c -0.21661,-0.21662 -0.11913,-1.26444 0.60491,-6.50204 0.27227,-1.96962 0.64223,-3.75971 0.82212,-3.97798 0.17989,-0.21826 1.54597,-0.76863 3.03573,-1.22304 2.07168,-0.6319 2.91245,-1.06837 3.57519,-1.85599 0.79868,-0.94918 0.84905,-1.18035 0.64333,-2.9528 l -0.22318,-1.92299 0.91735,0.10637 c 0.77708,0.0901 0.95776,0.30214 1.18157,1.3866 0.14531,0.70412 0.48069,1.91787 0.74529,2.69722 0.62415,1.83838 0.61046,4.09119 -0.0383,6.2999 -0.71793,2.44427 -1.57297,3.72475 -3.26415,4.88831 -2.31278,1.59124 -7.48787,3.56844 -7.99987,3.05644 z"
		id="face2"
		transform="scale(0.26458333)" />
		<path
		style="fill:#ff2a2a;stroke:#000000;stroke-width:0.326069"
		d="m 465.46317,929.56838 c -0.13341,-0.32569 -0.23836,-2.71643 -0.23322,-5.31274 0.008,-3.82502 0.11521,-4.91738 0.56741,-5.75799 0.7813,-1.45239 1.05233,-1.56035 3.926,-1.5639 2.46609,-0.003 2.58048,-0.0379 3.49974,-1.06633 0.80426,-0.89979 0.95032,-1.33646 0.95032,-2.84112 0,-1.5372 -0.1102,-1.85012 -0.81389,-2.3112 -0.79085,-0.51819 -1.11906,-1.43507 -0.51371,-1.43507 0.53995,0 2.62899,2.7032 3.5129,4.54566 0.68342,1.42454 0.89395,2.42122 1.00363,4.75125 0.24799,5.26792 -1.19945,7.25275 -7.17793,9.84291 -4.13724,1.79245 -4.42847,1.86329 -4.72125,1.14853 z"
		id="face3"
		transform="scale(0.26458333)" />

		<path
		id="three" style="fill:#000000;stroke-width:0.239345"
		d="m 91.659337,238.09356 v 5.3e-4 c -0.181017,-0.003 -0.38504,0.0102 -0.628901,0.0346 -2.148869,0.21558 -3.67424,2.17263 -4.245735,5.44825 -0.140811,0.80705 -0.444672,1.68745 -0.675412,1.95647 -0.712007,0.83012 -0.993127,1.60021 -1.196308,3.27732 -0.181351,1.49687 0.04186,5.31132 0.397391,6.79028 l 0.147277,0.6134 -4.071069,-0.15813 c -17.00172,-0.66042 -37.504751,-2.11524 -53.612748,-3.80392 -8.362099,-0.87664 -8.43256,-0.87872 -8.43256,-0.28887 0,0.27918 0.184338,0.56764 0.409795,0.64131 0.489557,0.15987 10.139407,1.19149 16.221232,1.73426 14.89739,1.32953 29.282577,2.29199 42.04601,2.81378 3.736129,0.15273 7.004601,0.3204 7.263122,0.37207 0.354008,0.0708 0.569717,0.47402 0.874366,1.63298 0.222483,0.84633 0.616919,2.30889 0.876433,3.25044 0.42111,1.52791 0.496133,2.85531 0.697632,12.35015 0.124174,5.85112 0.30875,11.90401 0.41031,13.45086 0.179578,2.73486 0.188275,2.65394 0.30851,-2.9347 l 0.123505,-5.74694 0.08733,5.99137 0.08733,5.99188 0.177768,-3.91294 c 0.0979,-2.15214 0.317434,-6.00402 0.487307,-8.55968 l 0.309026,-4.64675 0.173632,3.42408 c 0.09574,1.88313 0.240999,5.59628 0.32298,8.2517 0.08399,2.7205 0.240511,4.76965 0.358116,4.69376 0.114797,-0.0741 0.208772,0.004 0.208772,0.17261 0,0.19006 0.07893,0.21982 0.205674,0.0765 0.19182,-0.21704 0.36722,-2.68894 0.972032,-13.68392 0.607575,-11.04538 0.842428,-13.06893 1.894458,-16.31942 0.534094,-1.65022 1.050547,-3.09215 1.147734,-3.20446 0.09718,-0.1123 2.332744,-0.12529 4.968166,-0.0284 l 4.791948,0.17622 0.85938,2.47375 c 1.08771,3.13022 1.24224,4.04059 1.54564,9.1028 0.1362,2.27243 0.3039,4.79158 0.37208,5.59863 0.0682,0.80705 0.27832,4.05359 0.46767,7.21454 0.18934,3.16095 0.41394,6.89796 0.49919,8.30441 h 5.3e-4 c 0.0853,1.40643 0.2208,2.36128 0.30127,2.12183 0.0804,-0.23946 0.24775,-0.39958 0.37156,-0.35605 0.13854,0.0488 0.2902,-2.93011 0.39532,-7.74681 0.2315,-10.6078 0.42411,-11.98325 0.78548,-5.62498 0.1529,2.69016 0.3689,6.87234 0.48059,9.29349 l 0.20309,4.40179 0.12506,-4.64622 0.12454,-4.64675 0.0837,4.4018 c 0.14222,7.47992 0.43615,2.73991 0.47749,-7.70341 0.0532,-13.43557 0.25884,-17.13834 1.11312,-20.05407 l 0.68006,-2.32337 4.0039,-0.0667 4.00337,-0.0672 0.50901,1.53427 c 1.82618,5.50309 1.86766,5.86445 2.67581,23.38462 0.18828,4.08178 0.40237,7.48449 0.47594,7.56129 0.22734,0.23736 0.15294,-11.02827 -0.10956,-16.57211 -0.39961,-8.4396 -0.52017,-9.31935 -1.84123,-13.44879 -2.00071,-6.25392 -2.33386,-9.04046 -1.38803,-11.621 0.28045,-0.76511 0.62346,-1.42008 0.76171,-1.45521 0.91006,-0.23144 2.91027,-1.0035 3.33107,-1.2857 0.97016,-0.65064 1.29696,-2.76554 0.67179,-4.34909 -0.15158,-0.38398 -0.038,-0.33866 0.52865,0.21187 0.86005,0.83555 1.58609,2.50562 1.82159,4.18993 0.10018,0.71648 0.40004,1.50949 0.72399,1.91461 0.7716,0.9649 0.90686,1.64505 0.88419,4.44417 -0.0225,2.77994 -0.25808,4.10464 -1.50017,8.42998 -1.17833,4.10331 -1.26657,5.21099 -0.82992,10.40143 0.20367,2.42114 0.41969,5.17228 0.48007,6.11384 0.10706,1.67019 0.0964,1.6462 -0.42943,-0.98702 -0.29647,-1.48447 -0.61856,-2.83243 -0.7152,-2.99568 -0.33621,-0.56799 -0.58941,-0.29085 -0.67852,0.74207 -0.0845,0.97939 -0.0926,0.96473 -0.13125,-0.262 -0.0344,-1.09561 -0.10565,-1.28919 -0.45062,-1.2206 -0.59313,0.1179 -0.70849,1.77604 -0.72089,10.34821 -0.0134,9.29251 0.37423,8.91667 0.61133,-0.59273 0.0925,-3.70921 0.19221,-6.19365 0.22169,-5.52111 0.0295,0.67255 0.18762,2.21298 0.35141,3.42356 l 0.29817,2.2009 0.13694,-1.34514 0.13798,-1.34462 0.0413,1.22267 c 0.0311,0.90911 0.10248,1.12849 0.2775,0.85576 0.13419,-0.20909 0.18426,-1.15543 0.11679,-2.2009 -0.0842,-1.30345 0.11552,-0.45425 0.68936,2.9347 0.44412,2.62292 0.93009,5.70434 1.08004,6.84765 0.14994,1.14333 0.35807,2.29879 0.46251,2.5678 0.17346,0.44686 0.19206,0.43661 0.22065,-0.12196 0.0289,-0.56329 0.0476,-0.57311 0.23306,-0.12247 0.28908,0.70241 0.28412,-1.14283 -0.0108,-4.03541 -0.13031,-1.27784 -0.38703,-4.19409 -0.57051,-6.48074 -0.18348,-2.28664 -0.50738,-6.24845 -0.71985,-8.80412 -0.48967,-5.88943 -0.37475,-7.77294 0.69608,-11.41326 0.4617,-1.56954 0.83922,-3.01596 0.83922,-3.21427 0,-0.50943 0.51356,-0.65684 2.30322,-0.66146 0.85908,-0.002 2.77398,-0.11055 4.25556,-0.24081 1.48156,-0.13027 4.74934,-0.40332 7.26157,-0.6072 2.51223,-0.20388 4.83109,-0.42235 5.15317,-0.48576 0.32209,-0.0634 1.85071,-0.23128 3.39669,-0.37207 6.07935,-0.5536 24.01952,-2.95897 30.09946,-4.03593 1.09508,-0.19396 4.83731,-0.84905 8.31577,-1.45624 8.28619,-1.44639 8.54553,-1.50038 8.85269,-1.82107 0.19363,-0.20216 0.15861,-0.38243 -0.13488,-0.68885 -0.35459,-0.37021 -0.56936,-0.38354 -1.98127,-0.12144 -4.23273,0.78575 -18.51435,3.26382 -20.79098,3.60753 -8.84382,1.33519 -21.0704,2.87193 -29.16308,3.66541 -4.7452,0.46526 -15.31493,1.33162 -16.29461,1.33532 l -0.71779,0.002 0.10232,-2.79673 c 0.12457,-3.3979 -7.9e-4,-4.17591 -0.89348,-5.5516 -0.38109,-0.58715 -0.69446,-1.3658 -0.69712,-1.73065 -0.008,-1.29005 -0.9722,-3.46144 -1.99832,-4.50101 -1.26962,-1.28625 -2.36065,-1.54553 -3.58221,-0.85266 -0.47596,0.26995 -1.26046,0.67768 -1.74357,0.9064 -1.00568,0.47613 -1.06054,0.72564 -0.41082,1.87534 0.44025,0.77904 0.44751,0.90098 0.11627,2.06551 -0.19358,0.68062 -0.615,1.85818 -0.93638,2.61689 -0.48961,1.1559 -0.58446,1.7567 -0.58446,3.70934 0,1.28167 0.1187,2.82338 0.26407,3.42614 0.14542,0.60274 0.19973,1.16414 0.1204,1.24696 -0.0793,0.0828 -1.72663,0.2034 -3.66076,0.2682 -2.55367,0.0856 -3.51659,0.0409 -3.51659,-0.16278 0,-0.15423 0.16806,-1.35185 0.37311,-2.66186 0.62639,-4.00191 0.21381,-6.95996 -1.19683,-8.59017 -0.61965,-0.71611 -0.84327,-1.24945 -1.02836,-2.44946 -0.31654,-2.05211 -0.85897,-2.96872 -2.13424,-3.60754 -0.90471,-0.45317 -1.29303,-0.50354 -2.80654,-0.36638 -1.93743,0.17558 -1.87386,0.0897 -1.51464,2.0407 0.3105,1.68641 -0.0437,2.94726 -1.16634,4.15323 -1.1511,1.23651 -1.5325,2.33196 -1.53427,4.41111 -0.001,1.53652 0.75922,5.99444 1.15445,6.76547 0.1373,0.26784 0.2496,0.53911 0.2496,0.60307 0,0.11368 -8.722129,-0.0825 -8.848031,-0.19896 -0.03506,-0.0324 0.09693,-0.76252 0.293005,-1.62264 0.487183,-2.13712 0.687745,-5.51229 0.39791,-6.69984 -0.13131,-0.53804 -0.523309,-1.68866 -0.871265,-2.55696 -0.90991,-2.27064 -0.982642,-3.20735 -0.332796,-4.30516 l 0.53485,-0.90279 -0.564306,-0.4532 c -0.310383,-0.24912 -0.645787,-0.45508 -0.745172,-0.45785 -0.09939,-0.003 -0.598922,-0.29506 -1.110528,-0.64854 -0.585105,-0.40429 -0.921451,-0.55285 -1.464511,-0.56069 z m -0.351914,0.49351 c 0.04955,-0.004 0.13935,0.0161 0.257347,0.0605 0.235989,0.0887 0.484769,0.16123 0.552939,0.16123 0.06815,0 -0.105169,0.19391 -0.38499,0.43047 -0.674029,0.56984 -0.426564,1.1911 0.549836,1.38234 1.239867,0.24285 1.577157,0.64736 1.666565,1.99729 0.04442,0.67061 0.115057,1.37437 0.156581,1.56373 0.04154,0.18937 -0.08271,0.37902 -0.275953,0.42117 -0.545266,0.11879 -2.705232,-1.02999 -3.131592,-1.66553 -0.557689,-0.83129 -0.479721,-2.19915 0.183451,-3.21945 0.311084,-0.47861 0.495404,-0.95198 0.409795,-1.05161 -0.04281,-0.0498 -0.03354,-0.0765 0.01601,-0.0801 z m -1.006658,0.4439 -0.343649,0.85938 c -0.436493,1.09101 -0.436343,2.1268 5.29e-4,3.21841 0.280247,0.70028 0.62724,0.99363 1.86862,1.5813 0.838528,0.39696 1.743626,0.72192 2.011249,0.72191 0.363519,0 0.639151,0.34819 1.090372,1.37718 0.567877,1.29507 0.596045,1.53973 0.472323,4.09639 -0.121031,2.50115 -0.58865,5.18376 -1.113112,6.38721 -0.481124,1.10404 -1.811682,5.21936 -2.056204,6.35878 -0.144333,0.67255 -0.429467,3.69925 -0.633037,6.72569 -0.20356,3.02645 -0.453491,7.37324 -0.556038,9.65988 -0.136252,3.03755 -0.196358,3.55873 -0.222208,1.93476 -0.01942,-1.22252 -0.104751,-4.55111 -0.189653,-7.39748 -0.141137,-4.73136 -0.189664,-5.17539 -0.569476,-5.17539 -0.524753,0 -0.590137,0.25157 -0.932241,3.61528 -0.154302,1.51773 -0.345281,2.69145 -0.42478,2.60863 -0.07945,-0.0828 -0.211543,-2.75517 -0.293524,-5.93866 -0.153821,-5.97647 -0.138393,-5.86409 -1.492414,-10.92388 -0.215963,-0.80704 -0.487212,-1.58738 -0.603065,-1.73426 -0.115887,-0.14689 -0.157914,-0.32241 -0.09302,-0.39016 0.06493,-0.0678 -0.04131,-0.99356 -0.236161,-2.05672 -0.692314,-3.77738 -0.355301,-7.10316 0.874366,-8.62893 0.378126,-0.46918 0.624191,-1.15471 0.720886,-2.00711 0.186227,-1.64168 1.15784,-3.73072 2.039668,-4.38629 z m 18.386985,0.0222 c 0.20193,0 0.3505,0.0826 0.32969,0.18345 -0.0208,0.10088 0.0921,0.51374 0.25167,0.91725 0.34328,0.86819 0.04,2.25182 -0.63356,2.8882 -0.4543,0.42926 -2.2828,1.17913 -2.44997,1.00459 -0.0555,-0.058 -0.0184,-0.62759 0.0822,-1.26556 0.10059,-0.63796 0.18892,-1.29264 0.19689,-1.45469 0.008,-0.16204 0.37895,-0.36575 0.82527,-0.45319 0.98069,-0.19209 1.38799,-0.64573 1.18339,-1.31879 -0.10924,-0.35934 -0.049,-0.50126 0.21446,-0.50126 z m -1.89446,0.24857 c 0.53104,0.004 1.27227,0.38669 1.08366,0.55965 -0.0607,0.0556 -0.38803,0.17042 -0.72761,0.25529 -0.48983,0.12243 -0.64276,0.0539 -0.73949,-0.33229 -0.094,-0.3755 -0.006,-0.48543 0.38344,-0.48265 z m -14.387227,0.25631 c 0.23908,-0.0244 0.674883,0.12276 1.297077,0.43873 0.491609,0.24966 0.798383,0.51442 0.682646,0.58911 -0.115747,0.0747 -0.413821,-0.0195 -0.66249,-0.20929 -0.248653,-0.18983 -0.695248,-0.3452 -0.992706,-0.3452 -0.297458,0 -0.540536,-0.10991 -0.540536,-0.24442 0,-0.13793 0.07256,-0.2143 0.216009,-0.22893 z m 17.391697,0.0429 c 0.0329,0.0151 0.21308,0.19255 0.47284,0.4687 0.67555,0.71824 1.12374,2.04126 1.12551,3.32383 0.001,0.56278 0.24044,1.06988 0.82114,1.74098 1.1494,1.32831 1.52275,2.61999 1.52187,5.26066 -7.9e-4,2.54872 -0.59007,5.96623 -1.67122,9.69036 l -0.74569,2.56781 -0.13797,7.7034 c -0.11641,6.4962 -0.16778,7.32037 -0.32608,5.25808 -0.24965,-3.25222 -0.44485,-4.13647 -0.93431,-4.23489 -0.34165,-0.0687 -0.40425,0.14721 -0.42788,1.46606 -0.0213,1.18718 -0.067,1.3756 -0.19637,0.81236 l -0.16847,-0.73329 -0.15658,0.61133 c -0.086,0.33627 -0.18191,1.98715 -0.21342,3.66851 l -0.0574,3.05666 -0.17312,-2.2009 c -0.0954,-1.21058 -0.28578,-4.29198 -0.42271,-6.84764 -0.13693,-2.55566 -0.39971,-5.59927 -0.58395,-6.76341 -0.30237,-1.91065 -1.55536,-6.0347 -2.18901,-7.20525 -0.59917,-1.10689 -1.43299,-5.7064 -1.43299,-7.90391 0,-3.19896 0.75354,-4.43553 2.89027,-4.74131 1.46257,-0.2093 2.41167,-0.7513 2.84427,-1.62471 0.3693,-0.74559 0.48614,-2.90909 0.17983,-3.33157 -0.0242,-0.0333 -0.0296,-0.0469 -0.0186,-0.0419 z m 15.32517,0.92656 c 0.14975,0.0239 0.41108,0.30174 0.73897,0.8046 0.35438,0.54348 0.5271,1.17029 0.5271,1.91254 0,1.28434 -0.47207,1.85721 -2.05465,2.49649 -1.41183,0.5703 -1.2776,0.70403 -1.3162,-1.30741 -0.0288,-1.49982 0.30606,-2.08318 1.07487,-1.87327 0.71983,0.19654 1.35909,-0.24963 1.35909,-0.94827 0,-0.33154 -0.10526,-0.60255 -0.2341,-0.60255 -0.12883,0 -0.23461,-0.10992 -0.23461,-0.24443 0,-0.1747 0.0497,-0.25203 0.13953,-0.2377 z m -0.67231,0.95291 c 0.0934,-0.0101 0.2076,0.10034 0.25373,0.24494 0.0978,0.30624 -0.12127,0.31122 -0.77463,0.0181 -0.40056,-0.17976 -0.40939,-0.21268 -0.0589,-0.22737 0.22545,-0.009 0.48641,-0.0256 0.57981,-0.0357 z m 59.0734,8.85269 c 0.0814,0.003 0.15125,0.026 0.19016,0.0667 0.0778,0.0813 -0.0605,0.13931 -0.30747,0.12868 -0.27288,-0.0118 -0.32795,-0.0702 -0.14108,-0.14832 0.0846,-0.0353 0.177,-0.0505 0.25839,-0.047 z m -6.09059,0.97823 c 0.0814,0.003 0.15178,0.026 0.19069,0.0667 0.0778,0.0812 -0.0605,0.13931 -0.30748,0.12868 -0.27288,-0.0117 -0.32845,-0.0702 -0.14159,-0.14831 0.0845,-0.0353 0.17701,-0.0505 0.25838,-0.047 z m -1.63969,0.24443 c 0.0814,0.003 0.15178,0.0266 0.19068,0.0672 0.0778,0.0813 -0.0605,0.13879 -0.30747,0.12816 -0.27287,-0.0117 -0.32846,-0.0697 -0.14159,-0.14779 0.0845,-0.0353 0.17701,-0.0511 0.25838,-0.0476 z m -1.63918,0.24443 c 0.0814,0.004 0.15126,0.0266 0.19017,0.0672 0.0778,0.0812 -0.0605,0.13931 -0.30747,0.12867 -0.27288,-0.0117 -0.32847,-0.0702 -0.1416,-0.14831 0.0845,-0.0353 0.17753,-0.051 0.2589,-0.0475 z m -153.407689,0.24651 c 0.10614,0 0.211969,0.0168 0.292489,0.0506 0.16104,0.0679 0.02959,0.12351 -0.292489,0.12351 -0.322077,0 -0.454045,-0.0557 -0.293005,-0.12351 0.08052,-0.0339 0.186865,-0.0506 0.293005,-0.0506 z m 2.088245,0.24288 c 0.08137,0.004 0.151767,0.0261 0.190686,0.0667 0.07784,0.0813 -0.06055,0.13931 -0.307475,0.12868 -0.272876,-0.0117 -0.328453,-0.0702 -0.141593,-0.14831 0.08455,-0.0353 0.177008,-0.0505 0.258382,-0.047 z m 2.342493,0.24443 c 0.08137,0.004 0.15125,0.0266 0.190169,0.0672 0.07784,0.0813 -0.06055,0.13879 -0.307475,0.12816 -0.272876,-0.0117 -0.327938,-0.0697 -0.141077,-0.1478 0.08455,-0.0353 0.177009,-0.051 0.258383,-0.0475 z m 143.823261,0 c 0.0814,0.004 0.15178,0.0266 0.19069,0.0672 0.0778,0.0813 -0.0605,0.13879 -0.30748,0.12816 -0.27288,-0.0117 -0.32845,-0.0697 -0.14159,-0.1478 0.0845,-0.0353 0.17701,-0.051 0.25838,-0.0475 z m -1.87378,0.24443 c 0.0814,0.004 0.15125,0.0266 0.19016,0.0672 0.0778,0.0813 -0.0605,0.1393 -0.30747,0.12868 -0.27288,-0.0117 -0.32795,-0.0703 -0.14108,-0.14832 0.0845,-0.0353 0.17702,-0.051 0.25839,-0.0475 z m -139.587352,0.002 c 0.10614,0 0.212486,0.0168 0.293006,0.0506 0.16104,0.0679 0.02907,0.12351 -0.293006,0.12351 -0.322077,0 -0.454045,-0.0557 -0.293005,-0.12351 0.08052,-0.0339 0.186865,-0.0506 0.293005,-0.0506 z m 137.713562,0.24288 c 0.0814,0.003 0.15126,0.0259 0.19016,0.0667 0.0778,0.0813 -0.0605,0.1393 -0.30747,0.12867 -0.27287,-0.0117 -0.32795,-0.0702 -0.14108,-0.14831 0.0845,-0.0353 0.17702,-0.0505 0.25839,-0.047 z m -135.371069,0.002 c 0.10614,0 0.211969,0.0168 0.292489,0.0506 0.161039,0.0679 0.02959,0.123 -0.292489,0.123 -0.322077,0 -0.454045,-0.0551 -0.293005,-0.123 0.08052,-0.0339 0.186865,-0.0506 0.293005,-0.0506 z m 133.497279,0.24236 c 0.0814,0.004 0.15126,0.0266 0.19017,0.0672 0.0778,0.0813 -0.0605,0.13879 -0.30748,0.12816 -0.27288,-0.0117 -0.32845,-0.0697 -0.14159,-0.14779 0.0845,-0.0353 0.17753,-0.051 0.2589,-0.0475 z m -130.920692,0.002 c 0.10614,0 0.211968,0.0168 0.292488,0.0506 0.161041,0.0678 0.02959,0.12351 -0.292488,0.12351 -0.322077,0 -0.454045,-0.0557 -0.293005,-0.12351 0.08052,-0.0339 0.186865,-0.0506 0.293005,-0.0506 z m 129.046392,0.24288 c 0.0814,0.003 0.15177,0.026 0.19068,0.0667 0.0778,0.0812 -0.0605,0.13931 -0.30747,0.12868 -0.27288,-0.0117 -0.32847,-0.0702 -0.1416,-0.14831 0.0845,-0.0353 0.177,-0.0505 0.25839,-0.047 z m -126.7039,0.002 c 0.106141,0 0.211969,0.0162 0.292489,0.0501 0.16104,0.0679 0.02959,0.1235 -0.292489,0.1235 -0.322077,0 -0.454045,-0.0557 -0.293005,-0.1235 0.08052,-0.0339 0.186865,-0.0501 0.293005,-0.0501 z m 124.59601,0.24236 c 0.0814,0.004 0.15126,0.0266 0.19017,0.0672 0.0778,0.0813 -0.0605,0.13879 -0.30747,0.12816 -0.27288,-0.0117 -0.32795,-0.0697 -0.14108,-0.1478 0.0845,-0.0353 0.177,-0.051 0.25838,-0.0475 z m -121.551234,0.002 c 0.10614,0 0.212485,0.0168 0.293005,0.0506 0.16104,0.0679 0.02907,0.12299 -0.293005,0.12299 -0.322077,0 -0.453529,-0.0552 -0.292489,-0.12299 0.08052,-0.0339 0.186349,-0.0506 0.292489,-0.0506 z m 119.442834,0.24288 c 0.0814,0.003 0.15126,0.026 0.19017,0.0667 0.0778,0.0813 -0.06,0.1393 -0.30695,0.12867 -0.27288,-0.0117 -0.32847,-0.0702 -0.1416,-0.14831 0.0845,-0.0353 0.177,-0.0505 0.25838,-0.047 z m -116.866247,0.002 c 0.10614,0 0.212485,0.0168 0.293005,0.0507 0.16104,0.0678 0.02908,0.1235 -0.293005,0.1235 -0.322078,0 -0.453529,-0.0557 -0.292489,-0.1235 0.08052,-0.0339 0.186349,-0.0507 0.292489,-0.0507 z m 114.758367,0.24288 c 0.0814,0.004 0.15126,0.0261 0.19017,0.0667 0.0778,0.0812 -0.0605,0.1393 -0.30747,0.12867 -0.27288,-0.0117 -0.32847,-0.0697 -0.1416,-0.14779 0.0845,-0.0353 0.17752,-0.0511 0.2589,-0.0476 z m -111.947169,0.002 c 0.106139,0 0.211968,0.0167 0.292488,0.0506 0.16104,0.0678 0.02959,0.12299 -0.292488,0.12299 -0.32208,0 -0.454046,-0.0552 -0.293006,-0.12299 0.08052,-0.0339 0.186865,-0.0506 0.293006,-0.0506 z m 3.25975,0.24288 c 0.08137,0.004 0.151249,0.0261 0.190169,0.0667 0.07784,0.0812 -0.06055,0.13879 -0.307475,0.12816 -0.272878,-0.0117 -0.327937,-0.0692 -0.141078,-0.14728 0.08454,-0.0353 0.177009,-0.051 0.258384,-0.0475 z m 106.344929,0 c 0.0814,0.004 0.15126,0.0261 0.19017,0.0667 0.0778,0.0812 -0.0605,0.13879 -0.30747,0.12816 -0.27289,-0.0117 -0.32793,-0.0692 -0.14108,-0.14728 0.0846,-0.0353 0.17701,-0.051 0.25838,-0.0475 z m -2.34249,0.24495 c 0.0814,0.003 0.15126,0.0255 0.19017,0.0661 0.0778,0.0813 -0.0605,0.13931 -0.30748,0.12868 -0.27287,-0.0117 -0.32793,-0.0697 -0.14107,-0.1478 0.0846,-0.0353 0.17701,-0.0505 0.25838,-0.047 z m -100.965932,5.3e-4 c 0.127367,0.002 0.24575,0.0197 0.325043,0.0532 v -5.3e-4 c 0.158591,0.067 -0.02743,0.11728 -0.413928,0.11266 -0.386495,-0.005 -0.516778,-0.0594 -0.288872,-0.12144 0.113956,-0.0309 0.250389,-0.0455 0.377757,-0.0439 z m 3.073196,0.24339 c 0.148595,0 0.297066,0.0152 0.409794,0.046 0.225457,0.0615 0.04112,0.11214 -0.409794,0.11214 -0.450914,0 -0.635252,-0.0506 -0.409795,-0.11214 0.112729,-0.0307 0.261197,-0.046 0.409795,-0.046 z m 95.335786,0.001 c 0.10614,0 0.21248,0.0172 0.293,0.0512 0.16104,0.0678 0.0291,0.12299 -0.293,0.12299 -0.3221,0 -0.45405,-0.0552 -0.29301,-0.12299 0.0805,-0.0339 0.18687,-0.0512 0.29301,-0.0512 z m -91.850726,0.24391 c 0.127367,0.002 0.246269,0.0197 0.325562,0.0532 0.158588,0.067 -0.02743,0.11727 -0.413931,0.11265 -0.386495,-0.005 -0.516776,-0.0599 -0.288869,-0.12195 0.113953,-0.0309 0.24987,-0.0456 0.377238,-0.0439 z m 89.274136,5.3e-4 c 0.10614,0 0.21197,0.0168 0.29249,0.0506 0.16104,0.0678 0.0296,0.1235 -0.29249,0.1235 -0.3221,0 -0.45404,-0.0557 -0.293,-0.1235 0.0805,-0.0339 0.18686,-0.0506 0.293,-0.0506 z m -85.497625,0.2434 c 0.148596,0 0.297067,0.0147 0.409795,0.0455 0.225457,0.0615 0.04112,0.11214 -0.409795,0.11214 -0.450911,0 -0.635251,-0.0507 -0.409792,-0.11214 0.112729,-0.0308 0.261194,-0.0455 0.409792,-0.0455 z m 82.686425,0.001 c 0.10614,0 0.21249,0.0167 0.29301,0.0506 0.16104,0.0679 0.0291,0.12351 -0.29301,0.12351 -0.3221,0 -0.45352,-0.0557 -0.29249,-0.12351 0.0805,-0.0339 0.18635,-0.0506 0.29249,-0.0506 z m -78.704237,0.24236 c 0.148596,0 0.297067,0.0157 0.409792,0.0465 0.225457,0.0616 0.04112,0.11162 -0.409792,0.11162 -0.450913,0 -0.635767,-0.05 -0.410313,-0.11162 0.112729,-0.0308 0.261715,-0.0465 0.410313,-0.0465 z m 75.865137,0.001 c 0.12736,0.002 0.24627,0.0197 0.32556,0.0532 0.15859,0.067 -0.0279,0.11728 -0.41444,0.11266 -0.38649,-0.005 -0.51627,-0.06 -0.28836,-0.12196 0.11396,-0.0309 0.24987,-0.0456 0.37724,-0.0439 z m -71.913958,0.24244 c 0.169823,8e-4 0.331404,0.0164 0.443384,0.047 v 5.3e-4 c 0.223951,0.0613 -0.01434,0.10923 -0.529683,0.10645 -0.515329,-0.003 -0.698584,-0.0526 -0.407209,-0.1111 0.145685,-0.0294 0.323686,-0.0438 0.493508,-0.0429 z m 68.869188,0.002 c 0.12736,0.002 0.24575,0.0197 0.32504,0.0532 0.15859,0.067 -0.0274,0.11727 -0.41393,0.11265 -0.38649,-0.005 -0.51678,-0.06 -0.28887,-0.12196 0.11395,-0.0309 0.25038,-0.0455 0.37776,-0.0439 z m -64.153712,0.24184 c 0.19105,0 0.382161,0.0148 0.527098,0.0439 0.289872,0.0583 0.05264,0.10594 -0.527098,0.10594 -0.579744,0 -0.816973,-0.0476 -0.5271,-0.10594 0.144936,-0.0292 0.336047,-0.0439 0.5271,-0.0439 z m 60.405612,0.003 c 0.12736,0.002 0.24576,0.0192 0.32505,0.0527 0.15859,0.067 -0.0274,0.11727 -0.41393,0.11265 -0.38649,-0.005 -0.51626,-0.06 -0.28836,-0.12195 0.11396,-0.0309 0.24987,-0.045 0.37724,-0.0434 z m -55.048834,0.24236 c 0.169823,8e-4 0.331406,0.0164 0.443383,0.047 v 5.3e-4 c 0.223954,0.0612 -0.01434,0.10922 -0.529682,0.10645 -0.515329,-0.003 -0.698585,-0.0526 -0.407213,-0.1111 0.145688,-0.0294 0.323686,-0.0437 0.493512,-0.0429 z m 6.092134,0.24236 c 0.254736,5.3e-4 0.500973,0.0145 0.67696,0.0424 0.351984,0.0558 0.0077,0.10105 -0.765325,0.0992 -0.772994,-0.001 -1.060768,-0.0468 -0.639755,-0.10129 0.210505,-0.0271 0.473382,-0.0408 0.72812,-0.0403 z m 31.91277,0.24443 c 0.2972,-2.4e-4 0.60296,0.0128 0.84596,0.0393 v -5.3e-4 c 0.48598,0.0529 0.14579,0.0978 -0.75604,0.0987 -0.90186,10e-4 -1.2995,-0.0425 -0.88367,-0.0966 0.20792,-0.0269 0.49656,-0.0405 0.79375,-0.0408 z m 11.7502,19.14147 c 0.0246,-0.0257 0.0571,0.008 0.0946,0.10594 0.0676,0.17655 0.0593,0.38797 -0.0186,0.46922 -0.0779,0.0813 -0.13317,-0.0631 -0.12299,-0.32091 0.006,-0.14246 0.0224,-0.22854 0.047,-0.25425 z m -0.4687,1.22267 c 0.0246,-0.0257 0.0571,0.008 0.0946,0.10593 h 5.3e-4 c 0.0676,0.17654 0.0588,0.38797 -0.0191,0.46923 -0.0779,0.0813 -0.13317,-0.0631 -0.12299,-0.32091 0.006,-0.14246 0.0224,-0.22853 0.047,-0.25425 z m 1.8743,1.95647 c 0.0246,-0.0257 0.0566,0.008 0.0941,0.10593 h 5.3e-4 c 0.0676,0.17654 0.0593,0.38797 -0.0186,0.46922 -0.0778,0.0813 -0.13369,-0.0631 -0.12351,-0.32091 0.006,-0.14246 0.0229,-0.22853 0.0475,-0.25424 z m 0.23409,2.2009 c 0.0246,-0.0257 0.0566,0.008 0.0941,0.10645 h 5.2e-4 c 0.0676,0.17654 0.0593,0.38745 -0.0186,0.4687 -0.0779,0.0813 -0.13317,-0.0631 -0.12299,-0.32091 0.006,-0.14245 0.0224,-0.22854 0.047,-0.25424 z m -20.33158,4.93974 h 5.3e-4 c 0.016,-0.0243 0.0346,0.028 0.0548,0.16744 h 5.3e-4 c 0.0535,0.37174 0.052,0.92239 -0.004,1.22318 -0.0556,0.30081 -0.1,-0.003 -0.0982,-0.67593 0.001,-0.42034 0.0194,-0.67424 0.046,-0.71469 z m 21.07831,0.70539 c 0.0141,0.005 0.0293,0.0283 0.0455,0.0703 0.065,0.16813 0.065,0.44318 0,0.61133 -0.0649,0.16813 -0.11782,0.0304 -0.11782,-0.30592 0,-0.25223 0.03,-0.39217 0.0724,-0.37569 z m 0.19017,2.18074 c 0.0246,-0.0257 0.0566,0.008 0.094,0.10594 h 5.3e-4 c 0.0676,0.17654 0.0593,0.38745 -0.0186,0.46871 -0.0779,0.0813 -0.13317,-0.0631 -0.12299,-0.32091 0.006,-0.14246 0.0224,-0.22803 0.047,-0.25374 z"
		/>
	</g>

</svg>	
