<svg 
xmlns="http://www.w3.org/2000/svg" 
viewBox="40 165 142 75" 
>

	<g>
		
		
		<path
		id="cara1"
		style="fill:none;stroke:red;stroke-width:0.2;"
		d="m 92.051319,170.39784 c -0.645548,0.25195 -1.076075,0.9508 -1.335122,1.59353 -0.312003,0.77412 -0.381423,1.68996 -0.172276,2.49797 0.158654,0.61294 0.561639,1.17154 1.033643,1.59353 0.550427,0.4921 1.291722,0.72634 1.981149,0.99058 0.556116,0.21315 1.160929,0.6715 1.722702,0.47375 0.300672,-0.10584 0.551479,-0.95235 0.551479,-0.95235 l -0.265339,-2.40398 0.184554,-1.27621 0.678196,-0.66651 -0.888634,-0.41993 -0.931813,-0.41687 -0.312354,-0.36686 c -0.843791,-0.90091 -1.621325,-0.89052 -2.246185,-0.64665 z"
		 />
		
		<path
		id="cuerpo1"
		style="fill:red;stroke:red;stroke-width:0.2;"
		d="m 87.270683,177.93482 c -0.166568,0 -0.825806,0.59008 -1.234585,1.03992 -0.469608,0.51679 -0.693275,1.45441 -0.875771,2.10407 -0.625678,2.22731 0.301479,6.93402 0.301479,6.93402 l 1.851943,6.54641 c 0,0 0.758942,3.08036 0.947508,4.65139 0.270508,2.25373 0.25841,6.80481 0.25841,6.80481 l 0.258411,21.83571 0.818301,-14.94476 0.904435,-7.32163 c 0,0 0.03975,-0.60433 0.258411,-0.60296 0.450556,0.003 0.516821,1.24899 0.516821,1.24899 l 0.04307,6.02958 0.129207,16.19373 0.8183,-12.83439 0.990574,-14.81555 c 0,0 0.0056,-1.06771 0.08614,-1.59353 0.105437,-0.68836 0.516821,-2.02422 0.516821,-2.02422 0,0 2.601824,-6.0848 3.2732,-9.30278 0.361604,-1.73321 0.387617,-5.29742 0.387617,-5.29742 l -0.344548,-2.71331 -1.335122,-3.10093 c 0,0 -0.259218,0.66939 -0.55989,0.77523 -0.561773,0.19775 -1.166621,-0.2606 -1.722737,-0.47375 -0.689427,-0.26424 -1.430722,-0.49848 -1.981149,-0.99058 -0.472004,-0.42199 -0.874989,-0.98059 -1.033643,-1.59353 -0.209147,-0.80801 -0.139727,-1.72385 0.172276,-2.49797 0.259047,-0.64273 0.700393,-1.31545 1.335122,-1.59353 0.552906,-0.24223 1.732869,0.16795 1.732869,0.16795 0,0 -0.419671,-0.57001 -0.742296,-0.64174 -0.866261,-0.1926 -1.844673,0.0121 -2.627175,0.43068 -0.77922,0.41681 -1.315328,1.20506 -1.808877,1.93808 -0.609844,0.90574 -0.870453,1.88704 -1.097068,2.95518 -0.184754,0.87083 0.01438,1.83316 -0.23805,2.68683 z"
		/>
		
		<ellipse
		style="fill:red;stroke:red;stroke-width:0.1;"
		id="eye1"
		cx="93.579399"
		cy="171.647"
		rx="0.32301334"
		ry="0.31224623"
		/>
		
		<path
		id="cara2"
		style="fill:none;stroke:blueviolet;stroke-width:0.2;"
		d="m 112.06293,180.50786 c 0,0 0.65224,0.65168 1.07671,0.6891 0.82064,0.0724 1.61802,-0.46071 2.28263,-0.94751 0.57536,-0.42143 1.10678,-0.97706 1.37819,-1.6366 0.20281,-0.49282 0.15164,-1.06108 0.1292,-1.59353 -0.0184,-0.43624 0.009,-0.90088 -0.20223,-1.28308 -0.26771,-0.38788 -0.75955,-0.74798 -0.75955,-0.74798 -0.17798,-0.14126 -0.33912,-0.23313 -0.79908,-0.30227 -0.20458,-0.0307 -0.99412,0.1849 -1.26944,0.18762 l -1.69857,-0.0278 0.56311,1.99841 z"
		/>

		<path
		id="cuerpo2"
		style="fill:blueviolet;stroke:blueviolet;stroke-width:0.2;"
		d="m 112.06293,180.50786 c 0,0 0.65224,0.65168 1.07671,0.6891 0.82064,0.0724 1.61801,-0.46071 2.28263,-0.94751 0.57536,-0.42143 1.10678,-0.97706 1.37819,-1.6366 0.20281,-0.49282 0.15164,-1.06108 0.1292,-1.59353 -0.0184,-0.43624 -0.004,-0.90986 -0.21534,-1.29206 -0.25075,-0.45396 -1.16285,-1.03364 -1.16285,-1.03364 0,0 0.99047,0.006 1.42126,0.21534 0.62088,0.30236 1.13763,0.838 1.50739,1.42126 0.37191,0.58665 0.64603,1.98115 0.64603,1.98115 l 0.12921,1.80888 0.1292,0.73216 c 0,0 0.90473,0.77134 1.24899,1.24898 0.46925,0.65105 0.84314,1.38563 1.07671,2.15343 0.19797,0.65077 0.25841,2.02421 0.25841,2.02421 l -0.0431,2.84252 -0.51682,3.35934 -1.20592,5.46969 -0.8183,2.75638 -0.38761,3.05786 -0.25842,30.44939 -0.77523,-17.83033 c 0,0 -0.11458,-2.17202 -0.34455,-3.23014 -0.1157,-0.53235 -0.32194,-2.05922 -0.51682,-1.55046 -0.16119,0.4208 -0.0617,2.45244 -0.0617,2.45244 l -0.0675,5.51522 c -0.30065,-1.05543 -0.88123,-6.6768 -0.90444,-5.7712 l -0.0861,3.35934 v 17.8734 l -1.6366,-27.21926 -0.38762,-5.25435 -3.53161,-9.9488 c 0,0 -0.72339,-1.92312 -0.90444,-2.92866 -0.22423,-1.24535 -0.30736,-2.52799 -0.21534,-3.79002 0.0831,-1.14007 0.10218,-2.37842 0.68909,-3.35934 0.34542,-0.5773 1.55047,-1.29205 1.55047,-1.29205 z"
		/>
		
		<ellipse
		id="eye2"
		style="fill:blueviolet;stroke:blueviolet;stroke-width:0.1;"
		cx="114.65424"
		cy="175.8492"
		rx="0.32301334"
		ry="0.31224623"
		/>
		
		<path
		id="cara3"
		style="fill:none;stroke:#fb00b2;stroke-width:0.1;"
		d="m 142.18072,172.19788 c 0,0 0.77818,-0.47903 1.02991,-0.8448 0.32759,-0.47599 0.50845,-1.06806 0.54817,-1.64452 0.0362,-0.52538 -0.28931,-1.55315 -0.28931,-1.55315 0,0 -0.44416,-1.10297 -0.86794,-1.49224 -0.22528,-0.20693 -0.8295,-0.39251 -0.8295,-0.39251 m 0.40867,5.92722 c -0.69791,0.28292 -0.53418,0.35473 -1.06558,0.55825 -0.77407,0.29645 -2.12926,0.66702 -2.35843,0.67369 -0.24808,0.007 0.27186,-1.06106 0.29818,-1.17349 0,0 0.14276,-0.63384 0.16986,-0.88168 0.0353,-0.32311 -0.0511,-0.75742 -0.11776,-1.08746 9e-4,-0.3486 -0.55349,-1.40336 -0.55349,-1.40336 l -0.65706,-0.69796 c 0,0 1.04505,-0.42693 1.49225,-0.76135 0.31916,-0.23867 0.82225,-0.86794 0.82225,-0.86794 0,0 0.33844,-0.35224 0.69644,-0.37775 0.21916,-0.0156 0.8647,0.0918 0.8647,0.0918"
		/>

		<path
		id="cuerpo3"
		style="fill:chartreuse;stroke:chartreuse;stroke-width:0.1;"
		d="m 142.18072,172.19788 c 0,0 0.77818,-0.47903 1.02991,-0.8448 0.32759,-0.47599 0.50845,-1.06806 0.54817,-1.64452 0.0362,-0.52538 -0.28931,-1.55315 -0.28931,-1.55315 0,0 -0.44416,-1.10297 -0.86794,-1.49224 -0.22528,-0.20693 -0.8295,-0.39251 -0.8295,-0.39251 m 0,0 c 1.17599,0.25128 2.76669,0.42652 3.98824,2.99141 0,0 0.55298,1.63219 0.79677,2.95019 0.0936,0.78268 0.20844,0.74678 0.19377,1.50739 0.79499,1.08568 2.48024,2.94689 1.572,9.21665 -0.78934,3.00076 -1.14823,4.40761 -1.93808,7.40777 -0.0859,0.24433 -0.60269,2.08191 -0.6891,2.3257 -0.12894,0.99086 -0.30121,2.06755 -0.30147,3.4024 0.12947,2.92899 0.34481,5.59917 0.55989,8.61369 0.61759,5.95819 1.23489,11.91587 1.85194,17.87341 -1.27757,-8.55624 -3.53161,-18.82091 -3.53161,-18.82091 l -0.0861,12.48985 -1.03363,-13.56656 -1.33512,19.03625 -0.77524,-24.67822 -0.64602,-3.83309 c -1.6168,-5.07565 -1.64815,-5.09995 -2.62718,-8.0538 -0.71904,-3.03163 -0.74661,-3.68572 -0.91733,-6.67437 0.0612,-0.67989 0.0927,-1.16099 0.2904,-1.93275 0.33018,-1.0758 0.69055,-1.60365 1.03543,-2.40587 0.14239,-0.17231 0.43524,-0.51715 0.5771,-0.68998 1.41578,-0.26478 2.58587,-0.65554 3.42401,-1.23194"
		/>
		
		<ellipse
		id="eye3"
		style="fill:#fb00b2;stroke:#fb00b2;stroke-width:0.1;"
		cx="140.37674"
		cy="167.59315"
		rx="0.32301334"
		ry="0.31224623"
		/>

		<path
		id="branch"
		style="fill:#008000;stroke-width:0.236403"
		d="m 162.7252,189.3261 c -0.0514,-0.003 -0.10178,0.0214 -0.15038,0.0744 -0.0625,0.068 0.0459,0.70981 0.24133,1.42627 0.4106,1.50572 0.45441,2.87114 0.12247,3.82199 -0.12791,0.36687 -0.18931,0.71446 -0.13591,0.77256 0.0534,0.0581 0.20411,-0.26254 0.33487,-0.71262 0.45961,-1.58185 0.53276,-2.66725 0.26199,-3.8964 -0.20879,-0.94792 -0.45157,-1.47381 -0.67437,-1.48621 z m -87.989462,1.13068 c -1.052317,1.84159 -0.75656,5.31487 1.496034,6.44663 -1.007285,0.35854 -2.125803,0.37929 -3.157432,0.70952 -1.415899,0.45322 -2.717477,1.14373 -3.839041,2.00143 -0.320992,0.14289 -0.995711,0.51168 -2.170411,1.15652 -2.76801,1.51947 -2.8038,1.53065 -4.719092,1.53065 -1.881344,0 -1.946058,-0.0196 -2.57142,-0.78186 1.712241,-6.81471 -2.446544,-0.14606 0.0553,0.70021 0.880139,0.28078 0.90942,0.31486 0.341579,0.39584 -0.741457,0.10579 -2.733355,-1.00676 -3.362584,-1.87792 -0.754409,-1.04455 -0.977119,-2.43259 -0.68988,-4.29999 0.141269,-0.91842 0.253564,-2.02858 0.248563,-2.46704 l -0.0078,-0.79736 -0.561721,0.74052 c -1.837751,2.42094 -1.199761,5.86538 1.439188,7.76904 0.56575,0.40812 0.90048,0.74207 0.74414,0.74207 -0.56646,0 -3.821954,-0.9962 -6.702433,-2.05104 -5.134959,-1.88047 -7.650519,-2.08608 -10.168887,-0.83044 -0.699071,0.34853 -1.270725,0.68409 -1.270725,0.74518 0,0.0611 0.620586,-0.0994 1.379244,-0.35657 2.530001,-0.85757 6.247447,-0.45919 10.287227,1.10277 l 1.585434,0.6134 -1.585434,0.0295 c -0.87213,0.0162 -1.891715,0.18996 -2.265494,0.38602 -0.373769,0.19605 -0.475457,0.30324 -0.225825,0.23823 1.101138,-0.28689 4.517438,-0.54453 5.062739,-0.38189 0.543761,0.16222 0.477348,0.21796 -0.7121,0.59841 -0.825061,0.26392 -1.657525,0.75917 -2.243275,1.3348 -1.52205,1.49574 -1.888239,3.04576 -1.17719,4.98111 h -5.15e-4 c 0.200398,0.54552 0.395231,0.99167 0.43253,0.99167 0.0371,0 0.05692,-0.75256 0.04393,-1.67225 -0.0317,-2.24256 0.633428,-3.77953 2.06344,-4.76716 1.418839,-0.97994 2.280473,-1.09826 4.549593,-0.62477 3.15328,0.658 5.672156,0.4642 8.743135,-0.67335 0.24919,-0.0923 -0.158338,0.16708 -0.905889,0.57671 -2.116238,1.28852 -3.124517,1.30085 -5.550048,1.56993 3.687149,0.0821 5.613831,-0.60545 7.471378,-2.08204 -1.721045,2.52797 -0.752932,5.83394 3.124875,6.10145 -2.096788,1.92552 -2.431539,3.71677 -0.996839,6.02598 2.750436,-0.70727 3.160631,-4.30548 1.827795,-6.02598 1.16545,-0.14728 2.132171,-0.59133 2.825152,-1.40148 -1.012902,0.58159 -1.874364,1.17256 -3.157432,1.23198 -2.216269,0.10258 -4.289647,-1.60952 -4.138247,-3.47422 0.118348,-1.45745 1.317241,-2.78063 2.478918,-3.78375 3.451841,-2.98055 7.987858,-3.92291 12.62662,-2.40863 1.76743,0.57695 3.15494,1.56957 4.819343,2.26859 -0.629634,0.49847 -1.197221,1.03565 -1.608172,1.68155 -0.279172,0.43892 -0.49122,0.90159 -0.536916,1.40147 -0.339661,3.71258 7.034805,2.66954 5.446178,-0.98082 -0.334343,-0.76797 -1.095306,-1.30785 -1.639692,-1.96216 l 4.652944,-0.40772 10.136857,2.22932 v 0.14056 c -2.48814,0.76824 -5.294764,2.75678 -6.480754,4.76456 -2.202969,-0.77244 -4.886254,-1.38029 -6.314853,0.84079 1.740178,0.83524 3.681574,1.13578 5.483903,0.28009 -0.31673,0.82107 -0.36638,2.09305 -0.93121,2.79052 -0.862613,1.06548 -2.095558,1.54628 -2.342493,2.95537 -0.101865,0.58102 -0.181359,2.68906 0.826823,2.81378 0.963644,0.11913 2.19527,-1.64096 2.52646,-2.25309 0.94005,-1.73744 -0.33443,-2.48945 -0.47801,-4.06434 -0.147226,-1.61413 1.66757,-3.43106 2.89078,-4.48449 0.54888,1.57195 2.03446,2.00851 3.821994,1.82212 -0.36076,-1.29462 -1.62445,-2.18863 -3.156914,-2.3823 1.35249,-1.04755 3.448044,-2.4713 5.317504,-2.74246 1.23733,-0.17952 2.80256,0.36826 4.05867,0.46818 2.17522,0.17279 3.44947,0.40187 5.58415,0.0351 4.16716,-0.71429 7.73424,-2.8148 11.63236,-4.14652 5.26291,-1.79796 10.33781,-2.50623 15.95252,-2.46703 -1.20593,1.50732 -2.49924,2.90821 -4.32067,3.92431 -0.85514,-1.22293 -2.32719,-1.01707 -3.65559,-0.56069 v 0.28008 l 2.82515,0.84078 v 0.14056 l -5.15162,1.96164 v 0.14 l 2.99103,-0.84078 c -1.04026,1.23562 -2.4909,4.76456 0.1664,5.46583 1.78106,-2.1988 2.73811,-3.60944 1.32911,-6.16656 1.90418,-0.67211 3.5644,-1.83373 4.97903,-3.08301 0.55935,-0.49393 1.20364,-1.65897 2.0159,-1.83658 0.75326,-0.16469 1.94083,0.28123 2.64325,0.49661 0.63428,0.1945 1.33701,0.44597 2.04122,0.74982 1.37641,1.36405 3.53343,1.94197 5.06481,2.53267 0.18674,0.28137 0.3348,0.57543 0.43149,0.88366 2.7e-4,0.047 0.0128,0.093 0.0362,0.13333 0.59302,2.24888 -2.13731,2.90913 -4.08864,1.96887 1.09908,1.17297 3.27305,1.02645 4.15427,-0.28008 0.42773,0.71892 0.86564,1.11441 1.82779,1.26142 -0.0494,-0.90727 -0.35772,-1.62675 -1.49552,-1.82211 -3e-5,-0.36902 -0.0335,-0.70601 -0.0971,-1.02113 0.1007,-0.0351 0.16968,-0.13087 0.17312,-0.2403 -8e-5,-0.1451 -0.11439,-0.26264 -0.25528,-0.26251 -0.0159,0.003 -0.0314,0.007 -0.0465,0.0129 -0.0548,-0.16497 -0.12079,-0.32348 -0.19534,-0.47801 1.21864,0.39343 2.67974,0.56762 4.63848,0.524 -2.26164,-0.2509 -3.29226,-0.27988 -5.13664,-1.32705 -0.13473,-0.17557 -0.28756,-0.34799 -0.45113,-0.52038 2.6905,0.86551 5.02417,0.96902 7.87497,0.37413 2.26912,-0.47349 3.13075,-0.35517 4.54959,0.62477 1.43001,0.98763 2.09514,2.5246 2.06344,4.76715 -0.013,0.91969 0.007,1.67225 0.0439,1.67225 0.0373,0 0.23213,-0.44615 0.43254,-0.99167 h -5.2e-4 c 0.71105,-1.93534 0.34486,-3.48535 -1.17719,-4.98109 -0.58575,-0.57563 -1.41821,-1.07088 -2.24327,-1.3348 -1.18945,-0.38045 -1.25586,-0.43619 -0.7121,-0.59841 0.5453,-0.16264 3.96159,0.095 5.06274,0.38188 0.24963,0.065 0.14794,-0.0422 -0.22583,-0.23822 -0.37378,-0.19606 -1.39337,-0.36983 -2.26549,-0.38603 l -1.58544,-0.0294 1.58544,-0.6134 c 4.03979,-1.56196 7.75721,-1.96035 10.28722,-1.10278 0.75865,0.25715 1.37925,0.41767 1.37925,0.35657 0,-0.0611 -0.57165,-0.39664 -1.27073,-0.74517 -2.51837,-1.25564 -5.03391,-1.05003 -10.16888,0.83044 -2.88049,1.05484 -6.13598,2.05103 -6.70244,2.05103 -0.15634,0 0.17839,-0.33395 0.74414,-0.74207 2.63895,-1.90365 3.27693,-5.3481 1.43919,-7.76904 l -0.56172,-0.74052 -0.008,0.79737 c -0.005,0.43845 0.10729,1.54861 0.24856,2.46703 0.28724,1.8674 0.0645,3.25545 -0.68988,4.3 -0.62923,0.87116 -2.62113,1.9837 -3.36259,1.87792 -0.56784,-0.081 -0.53855,-0.11506 0.34159,-0.39584 2.50184,-0.84627 -1.65695,-7.51493 0.0553,-0.70022 -0.62536,0.76224 -0.69008,0.78187 -2.57142,0.78187 -1.55925,0 -1.87354,-0.007 -3.42976,-0.82993 l 2.40398,-0.67592 c -0.99194,-0.9732 -3.93474,-0.80752 -4.94957,0.22737 -0.37579,-0.20614 -0.69167,-0.37801 -0.95808,-0.52193 -3.48246,-2.17765 -9.71707,-1.87177 -13.52992,-1.33274 -1.04059,0.14712 -1.45911,0.1577 -3.15743,0.31006 -5.61481,1.66418 -1.53576,0.17491 -6.97942,2.27428 -3.07855,0.74766 -6.17802,3.3254 -9.47176,3.29696 -1.26963,0.34539 -1.71066,0.2829 -3.21739,-0.0501 -5.74099,1.16359 -8.38651,-1.22596 -13.737654,-2.45359 -2.279086,-0.52292 -4.775991,-0.66487 -7.145303,-0.46509 -0.883883,0.0746 -1.968521,0.60507 -2.825152,0.51987 -0.990065,-0.0985 -2.098175,-1.09948 -2.991032,-1.4888 -1.897711,-0.82757 -3.769577,-1.16203 -5.816182,-1.57769 1.230355,-2.77051 -0.327242,-5.43596 -3.489709,-6.58667 z m 93.170022,0.18035 c -0.15397,-8e-4 -0.36635,0.0221 -0.59996,0.0682 -1.76501,0.34803 -2.77503,1.31434 -2.77503,2.65514 v 0.71675 l 0.91726,-1.08004 0.91674,-1.08055 -0.6904,1.08572 c -0.37982,0.59703 -0.6904,1.17968 -0.6904,1.29501 0,0.3891 1.28578,0.21372 1.62471,-0.22169 v -5.2e-4 c 0.34491,-0.44309 1.54668,-3.05846 1.54668,-3.3662 0,-0.0472 -0.0956,-0.071 -0.2496,-0.0718 z M 53.650719,191.8169 c -0.2228,0.0124 -0.465576,0.53829 -0.674377,1.48621 -0.270759,1.22915 -0.19761,2.31456 0.262001,3.89641 0.130759,0.45008 0.281463,0.77072 0.334862,0.71262 0.0534,-0.0581 -0.008,-0.4057 -0.135909,-0.77257 -0.331938,-0.95085 -0.288126,-2.31627 0.122473,-3.82199 0.1954,-0.71646 0.303829,-1.35827 0.241329,-1.42626 -0.0486,-0.053 -0.099,-0.0773 -0.150379,-0.0744 z m -5.18056,1.31103 c -0.153982,7.9e-4 -0.249597,0.0246 -0.249597,0.0718 0,0.30774 1.201764,2.92311 1.546675,3.3662 v 5.2e-4 c 0.338928,0.43541 1.624705,0.61079 1.624705,0.22169 0,-0.11533 -0.310575,-0.69798 -0.690395,-1.29501 l -0.690399,-1.08572 0.916742,1.08056 0.917255,1.08003 v -0.71675 c 0,-1.3408 -1.010023,-2.3071 -2.775024,-2.65513 -0.233609,-0.0461 -0.446003,-0.069 -0.599962,-0.0682 z m 122.512931,0.23823 c -0.19879,0.004 -0.46405,0.0561 -0.817,0.15813 -1.09326,0.31591 -4.72943,2.10262 -4.72943,2.32389 0,0.0767 0.0257,0.1281 0.0568,0.11421 0.0311,-0.0139 0.56612,-0.24551 1.18908,-0.5147 0.62296,-0.26916 1.89519,-0.64946 2.8267,-0.84491 1.80816,-0.37939 2.29382,-0.6619 1.89136,-1.10019 -0.0865,-0.0942 -0.21877,-0.14043 -0.41755,-0.13643 z m -6.52673,1.23817 c -0.11404,0.0133 -0.61455,0.61143 -1.16117,1.39423 -1.16963,1.67492 -1.27144,2.23819 -0.154,0.85214 0.92773,-1.15072 1.48061,-2.08019 1.33274,-2.24121 -0.004,-0.005 -0.01,-0.006 -0.0176,-0.005 z m -119.063532,1.25263 c -0.198782,-0.004 -0.331047,0.0422 -0.417547,0.13643 -0.402461,0.43829 0.08321,0.7208 1.891358,1.10019 0.931518,0.19545 2.203751,0.57575 2.8267,0.84491 0.622961,0.26919 1.157975,0.50081 1.189074,0.5147 0.0311,0.0139 0.05685,-0.0375 0.05685,-0.11421 0,-0.22127 -3.636169,-2.00798 -4.729427,-2.32389 -0.352952,-0.10201 -0.618215,-0.15461 -0.817004,-0.15813 z m 6.526731,1.23765 v 5.2e-4 c -0.008,-8e-4 -0.01347,10e-5 -0.01757,0.005 -0.14787,0.16102 0.405006,1.09049 1.332736,2.24121 1.117438,1.38605 1.015635,0.82277 -0.153996,-0.85215 -0.546621,-0.7828 -1.047131,-1.3809 -1.161171,-1.39423 z m 126.316831,1.14826 c -0.53806,0.0169 -0.39891,0.37901 0.42685,0.93482 0.42207,0.28408 0.90383,0.69478 1.07022,0.91312 0.16639,0.21836 -0.0848,0.11104 -0.5581,-0.23874 -0.94468,-0.69818 -1.69844,-1.02335 -1.88981,-0.81494 -0.0679,0.0739 -0.0578,0.42104 0.0227,0.7705 0.14833,0.6436 0.33023,0.75956 2.81171,1.80919 l 1.20406,0.50953 -0.15555,-0.78755 c -0.35535,-1.79776 -1.18185,-2.82606 -2.45152,-3.05046 -0.1962,-0.0347 -0.35642,-0.0495 -0.4806,-0.0455 z m -8.5695,1.20199 c -1.28794,0.007 -1.40261,0.37367 -0.26458,0.84698 1.33063,0.55343 1.21552,0.71986 -0.18139,0.26199 -0.99327,-0.32548 -1.06556,-0.31933 -1.06556,0.0941 0,0.73234 0.84025,1.33298 2.13216,1.52393 0.67032,0.0991 1.43285,0.25408 1.69499,0.34469 0.29026,0.10033 0.47698,0.0573 0.47698,-0.11059 0,-1.15411 -1.70959,-2.96706 -2.7926,-2.96106 z m -131.527368,1.28881 c -0.124169,-0.004 -0.28439,0.0108 -0.480589,0.0455 -1.269672,0.2244 -2.096172,1.2527 -2.451532,3.05046 l -0.155546,0.78755 1.204061,-0.50953 c 2.481479,-1.04963 2.663386,-1.16611 2.811716,-1.8097 0.0805,-0.34947 0.09064,-0.69608 0.02274,-0.76998 -0.191378,-0.20841 -0.945126,0.11675 -1.889807,0.81493 -0.47329,0.34978 -0.724496,0.45711 -0.558105,0.23875 0.166392,-0.21834 0.64815,-0.62956 1.070219,-0.91364 0.825759,-0.55581 0.964909,-0.9174 0.426847,-0.93431 z M 86.86523,201.53 c 0.05322,-0.003 0.107069,-0.001 0.161229,0.003 2.365828,0.1997 2.397279,4.0966 -0.657839,3.75171 -2.302679,-0.25998 -1.153236,-3.67465 0.49661,-3.75481 z m 67.04242,0.39223 c -0.14109,-1.3e-4 -0.25548,0.11773 -0.25528,0.26303 8e-5,0.1451 0.11438,0.26265 0.25528,0.26252 0.1409,1.3e-4 0.2552,-0.11742 0.25528,-0.26252 2e-4,-0.1453 -0.11419,-0.26316 -0.25528,-0.26303 z m -107.198626,0.0134 c -1.083008,-0.006 -2.792592,1.80695 -2.792592,2.96106 0,0.16785 0.186703,0.21092 0.476972,0.11059 0.26213,-0.0906 1.024678,-0.2456 1.694987,-0.34468 1.29191,-0.19095 2.132171,-0.7916 2.132171,-1.52394 0,-0.41339 -0.0723,-0.41953 -1.06557,-0.094 -1.39692,0.45786 -1.512025,0.29143 -0.181385,-0.262 1.138021,-0.47331 1.023358,-0.83996 -0.264583,-0.84698 z m 110.054776,0.11472 c -0.14089,1.7e-4 -0.25496,0.11795 -0.25476,0.26304 8e-5,0.14489 0.11407,0.26234 0.25476,0.26251 0.1409,1.4e-4 0.25521,-0.11741 0.25529,-0.26251 2e-4,-0.14531 -0.11419,-0.26318 -0.25529,-0.26304 z m -1.45624,0.0656 c -0.14109,-1.3e-4 -0.25548,0.11774 -0.25528,0.26304 8e-5,0.1451 0.11439,0.26264 0.25528,0.26251 0.14069,-1.6e-4 0.25469,-0.11762 0.25477,-0.26251 2e-4,-0.1451 -0.11388,-0.26288 -0.25477,-0.26304 z m -7.06727,1.60766 0.0558,0.093 z m -84.523,0.45268 c -0.140897,-1.3e-4 -0.255206,0.11742 -0.255284,0.26252 8.3e-5,0.1451 0.114391,0.26264 0.255284,0.26251 0.14069,-1.6e-4 0.254681,-0.11762 0.254764,-0.26251 -7.8e-5,-0.14489 -0.11407,-0.26236 -0.254764,-0.26252 z m -1.249021,0.23668 c -0.141089,-1.3e-4 -0.255477,0.11773 -0.255281,0.26303 7.8e-5,0.1451 0.114385,0.26265 0.255281,0.26252 0.140896,1.3e-4 0.255205,-0.11742 0.255283,-0.26252 1.96e-4,-0.1453 -0.114193,-0.26316 -0.255283,-0.26303 z m -2.856156,0.12816 c -0.141089,-1.3e-4 -0.255477,0.11773 -0.255281,0.26303 7.8e-5,0.1451 0.114385,0.26265 0.255281,0.26252 0.140694,-1.6e-4 0.254686,-0.11763 0.254764,-0.26252 1.96e-4,-0.14509 -0.113877,-0.26287 -0.254764,-0.26303 z m 1.456242,0.0656 c -0.140887,1.6e-4 -0.25496,0.11794 -0.254764,0.26303 7.8e-5,0.14489 0.11407,0.26236 0.254764,0.26252 0.140896,1.3e-4 0.255203,-0.11742 0.255281,-0.26252 1.96e-4,-0.1453 -0.114192,-0.26316 -0.255281,-0.26303 z"
		/>		
	</g>
</svg>	
	
	

